<?xml version="1.0" standalone="no"?>
<!DOCTYPE svg PUBLIC "-//W3C//DTD SVG 20010904//EN"
 "http://www.w3.org/TR/2001/REC-SVG-20010904/DTD/svg10.dtd">
<svg version="1.0" xmlns="http://www.w3.org/2000/svg"
 width="300.000000pt" height="276.000000pt" viewBox="0 0 300.000000 276.000000"
 preserveAspectRatio="xMidYMid meet">

<g transform="translate(0.000000,276.000000) scale(0.100000,-0.100000)"
fill="#000000" stroke="none">
<path d="M585 2112 c-96 -51 -150 -90 -214 -153 -56 -56 -151 -192 -177 -254
-17 -43 -29 -30 146 -163 120 -91 301 -204 358 -223 31 -10 35 -9 100 49 l67
59 60 -50 c295 -244 858 -487 1253 -541 100 -14 152 182 61 230 -17 8 -115 26
-222 40 -482 62 -777 155 -1016 321 -35 24 -68 42 -73 41 -18 -6 163 -128 267
-180 121 -61 285 -116 460 -155 72 -15 120 -29 109 -31 -34 -5 -269 47 -384
84 -170 56 -350 149 -469 243 l-25 19 67 73 c37 40 67 79 67 86 0 22 -84 176
-152 278 -75 111 -194 265 -206 265 -4 0 -38 -17 -77 -38z m88 -147 c41 -40
217 -296 217 -314 0 -17 -25 -41 -43 -41 -8 0 -232 272 -246 298 -25 47 35 94
72 57z m-121 -107 c42 -34 248 -272 248 -287 0 -21 -19 -41 -39 -41 -23 0
-281 261 -281 284 0 22 27 56 45 56 6 0 18 -6 27 -12z m16 -230 c76 -66 141
-127 145 -134 7 -13 -24 -54 -41 -54 -4 0 -76 54 -160 121 -154 122 -172 145
-140 177 29 29 60 12 196 -110z m1249 -534 c-3 -3 -12 -4 -19 -1 -8 3 -5 6 6
6 11 1 17 -2 13 -5z"/>
<path d="M2269 2058 c-95 -123 -187 -264 -238 -365 -23 -44 -41 -84 -41 -88 0
-4 29 -40 65 -80 36 -40 65 -75 65 -78 0 -20 -204 -147 -309 -192 l-74 -33 49
-10 c46 -10 52 -9 99 21 70 44 151 103 211 153 l50 42 68 -59 c76 -66 72 -66
166 -19 123 62 450 298 450 324 0 18 -86 164 -132 224 -55 72 -162 156 -265
210 -45 23 -84 42 -87 42 -3 0 -38 -42 -77 -92z m133 -95 c10 -9 18 -24 18
-34 0 -20 -244 -319 -259 -319 -15 0 -41 30 -41 46 0 14 168 252 213 302 24
26 44 28 69 5z m118 -113 c11 -11 20 -27 20 -36 0 -17 -264 -277 -287 -282
-18 -5 -43 16 -43 37 0 17 226 272 257 290 25 15 30 14 53 -9z m122 -117 c25
-23 23 -35 -14 -69 -33 -30 -251 -203 -275 -218 -20 -12 -55 13 -51 36 4 30
271 268 299 268 13 0 31 -7 41 -17z"/>
<path d="M1950 1536 c0 -2 8 -10 18 -17 15 -13 16 -12 3 4 -13 16 -21 21 -21
13z"/>
<path d="M1976 1405 c-97 -63 -289 -155 -324 -155 -16 -1 -15 -1 1 -11 25 -15
56 -5 162 48 88 44 190 109 250 158 54 45 12 26 -89 -40z"/>
<path d="M1050 1114 c-52 -7 -133 -19 -180 -25 -71 -10 -89 -16 -113 -41 -27
-27 -29 -33 -25 -89 8 -111 49 -134 193 -109 82 15 295 76 410 119 l80 29
-101 50 c-56 27 -112 57 -125 66 -13 9 -28 15 -34 15 -5 -1 -53 -8 -105 -15z"/>
<path d="M207 674 c-4 -4 -7 -47 -7 -96 l0 -88 35 0 c33 0 35 2 35 35 0 28 4
35 20 35 16 0 20 -7 20 -35 0 -32 2 -35 30 -35 l30 0 0 95 0 95 -30 0 c-28 0
-30 -3 -30 -35 0 -28 -4 -35 -19 -35 -15 0 -21 8 -23 33 -2 26 -8 33 -28 35
-14 2 -29 0 -33 -4z"/>
<path d="M439 651 c-36 -36 -40 -95 -9 -134 45 -57 140 -39 160 30 31 102 -78
177 -151 104z m87 -46 c9 -38 -3 -77 -24 -73 -17 3 -29 56 -18 84 9 23 35 16
42 -11z"/>
<path d="M640 585 c0 -95 0 -95 25 -95 23 0 25 4 26 48 l1 47 12 -45 c10 -37
16 -45 36 -45 18 0 26 8 36 40 l12 40 1 -42 c1 -41 3 -43 31 -43 l30 0 0 95 0
95 -40 0 c-37 0 -40 -2 -50 -40 -6 -22 -13 -40 -15 -40 -2 0 -9 18 -15 40 -10
38 -13 40 -50 40 l-40 0 0 -95z"/>
<path d="M900 585 l0 -95 70 0 c63 0 70 2 70 20 0 17 -7 20 -40 20 -29 0 -40
4 -40 15 0 10 11 15 35 15 31 0 35 3 35 25 0 22 -4 25 -35 25 -19 0 -35 5 -35
10 0 6 18 10 40 10 36 0 40 3 40 25 0 24 -2 25 -70 25 l-70 0 0 -95z"/>
<path d="M1087 674 c-4 -4 -7 -47 -7 -96 0 -87 0 -88 24 -88 22 0 25 5 28 48
l4 47 13 -47 c11 -39 18 -48 36 -48 18 0 25 8 33 38 l10 37 1 -37 c1 -35 3
-38 31 -38 l30 0 0 95 0 95 -35 0 c-20 0 -38 -6 -40 -12 -2 -7 -10 -26 -16
-43 l-11 -30 -12 40 c-10 36 -15 40 -47 43 -19 2 -38 0 -42 -4z"/>
<path d="M1385 668 c-18 -48 -55 -163 -55 -170 0 -14 48 -8 54 7 3 8 16 15 30
15 13 0 26 -7 30 -15 6 -15 66 -22 66 -7 0 4 -13 46 -28 92 -27 81 -30 85 -60
88 -20 2 -34 -2 -37 -10z m35 -83 c0 -8 -4 -15 -10 -15 -5 0 -7 7 -4 15 4 8 8
15 10 15 2 0 4 -7 4 -15z"/>
<path d="M1550 586 l0 -96 60 0 c77 0 110 27 110 89 0 64 -32 93 -108 99 l-62
4 0 -96z m98 6 c3 -32 -11 -62 -29 -62 -5 0 -9 23 -9 51 0 43 3 50 18 47 11
-2 18 -14 20 -36z"/>
<path d="M1767 673 c-4 -3 -7 -46 -7 -95 l0 -88 75 0 c68 0 75 2 75 20 0 17
-7 20 -40 20 -29 0 -40 4 -40 15 0 10 10 15 30 15 25 0 30 4 30 25 0 21 -5 25
-30 25 -16 0 -30 5 -30 10 0 6 18 10 40 10 36 0 40 3 40 25 0 24 -2 25 -68 25
-38 0 -72 -3 -75 -7z"/>
<path d="M1519 358 c-4 -63 -3 -78 4 -78 4 0 7 20 7 45 0 25 -2 45 -5 45 -3 0
-5 -6 -6 -12z"/>
<path d="M1880 325 c0 -27 2 -46 5 -43 8 8 9 77 2 85 -4 3 -7 -15 -7 -42z"/>
<path d="M683 320 c0 -25 2 -35 4 -22 2 12 2 32 0 45 -2 12 -4 2 -4 -23z"/>
<path d="M715 350 c4 -6 2 -16 -3 -23 -6 -8 -3 -18 11 -32 l20 -20 -11 21 c-6
11 -8 30 -5 42 3 13 1 22 -6 22 -7 0 -9 -5 -6 -10z"/>
<path d="M764 326 c-8 -21 2 -46 18 -45 10 0 10 2 1 6 -22 8 -14 23 13 23 16
0 24 5 22 13 -7 18 -47 21 -54 3z m33 -2 c-3 -3 -12 -4 -19 -1 -8 3 -5 6 6 6
11 1 17 -2 13 -5z"/>
<path d="M844 325 c-8 -20 2 -45 18 -44 10 0 10 2 1 6 -19 7 -16 41 5 46 16 4
16 5 -1 6 -10 0 -20 -6 -23 -14z"/>
<path d="M914 325 c-8 -20 2 -45 18 -44 10 0 10 2 1 6 -20 8 -15 23 7 23 11 0
20 7 20 15 0 8 -5 15 -11 15 -5 0 -7 -4 -4 -10 3 -5 -1 -10 -10 -10 -9 0 -13
5 -10 10 3 6 4 10 0 10 -3 0 -8 -7 -11 -15z"/>
<path d="M991 293 c1 -53 6 -49 11 10 2 20 0 37 -4 37 -4 0 -8 -21 -7 -47z"/>
<path d="M1025 330 c3 -5 8 -10 11 -10 2 0 4 5 4 10 0 6 -5 10 -11 10 -5 0 -7
-4 -4 -10z"/>
<path d="M1072 310 c0 -19 2 -27 5 -17 2 9 2 25 0 35 -3 9 -5 1 -5 -18z"/>
<path d="M1106 325 c-7 -19 3 -45 16 -45 6 0 5 6 -2 15 -11 13 -8 15 14 15 27
0 35 14 14 26 -7 4 -8 3 -4 -4 4 -7 1 -12 -9 -12 -9 0 -13 5 -10 10 3 6 2 10
-3 10 -6 0 -12 -7 -16 -15z"/>
<path d="M1180 334 c0 -3 9 -17 20 -31 14 -17 20 -21 20 -10 0 8 -8 18 -17 22
-17 7 -16 8 2 15 19 8 19 9 -2 9 -13 1 -23 -2 -23 -5z"/>
<path d="M1291 308 c2 -31 2 -31 6 -5 2 15 10 27 18 27 8 0 16 -12 18 -27 l4
-28 2 28 c0 16 7 27 15 27 8 0 17 -12 19 -27 4 -26 4 -26 6 5 1 32 0 32 -44
32 -44 0 -45 0 -44 -32z"/>
<path d="M1435 310 c0 -16 3 -30 7 -30 5 0 8 14 8 30 0 17 -4 30 -8 30 -4 0
-8 -13 -7 -30z"/>
<path d="M1487 333 c-9 -9 -9 -53 1 -53 4 0 7 14 7 30 0 17 0 30 -1 30 0 0 -4
-3 -7 -7z"/>
<path d="M1564 325 c-8 -20 2 -45 18 -44 10 0 10 2 1 6 -20 8 -15 23 7 23 11
0 20 7 20 15 0 8 -5 15 -11 15 -5 0 -7 -4 -4 -10 3 -5 -1 -10 -10 -10 -9 0
-13 5 -10 10 3 6 4 10 0 10 -3 0 -8 -7 -11 -15z"/>
<path d="M1676 320 c9 -37 21 -45 29 -19 l7 22 13 -24 13 -24 12 29 c6 16 9
31 6 33 -2 3 -7 -6 -12 -19 l-7 -23 -9 25 c-9 24 -10 24 -23 7 -13 -18 -14
-18 -25 0 -9 16 -10 15 -4 -7z"/>
<path d="M1782 310 c0 -19 2 -27 5 -17 2 9 2 25 0 35 -3 9 -5 1 -5 -18z"/>
<path d="M1818 333 c6 -2 18 -2 25 0 6 3 1 5 -13 5 -14 0 -19 -2 -12 -5z"/>
<path d="M1918 310 c2 -16 6 -30 8 -30 2 0 4 14 4 30 0 17 -4 30 -8 30 -5 0
-7 -13 -4 -30z"/>
<path d="M2037 333 c-9 -9 -9 -53 1 -53 4 0 7 14 7 30 0 17 0 30 -1 30 0 0 -4
-3 -7 -7z"/>
<path d="M2069 332 c8 -6 12 -19 8 -32 -4 -16 -3 -20 4 -13 15 15 7 45 -11 50
-12 4 -13 3 -1 -5z"/>
<path d="M2111 335 c0 -5 6 -21 13 -34 l14 -25 16 35 c16 32 16 33 -1 11 l-16
-24 -13 24 c-7 13 -13 19 -13 13z"/>
<path d="M2186 325 c-7 -19 3 -45 16 -45 6 0 5 6 -2 15 -11 13 -8 15 14 15 27
0 35 14 14 26 -7 4 -8 3 -4 -4 4 -7 1 -12 -9 -12 -9 0 -13 5 -10 10 3 6 2 10
-3 10 -6 0 -12 -7 -16 -15z"/>
<path d="M1026 295 c-3 -8 -1 -15 4 -15 6 0 10 7 10 15 0 8 -2 15 -4 15 -2 0
-6 -7 -10 -15z"/>
<path d="M1400 295 c0 -8 4 -15 8 -15 5 0 9 7 9 15 0 8 -4 15 -9 15 -4 0 -8
-7 -8 -15z"/>
</g>
</svg>
