<?xml version="1.0" standalone="no"?>
<!DOCTYPE svg PUBLIC "-//W3C//DTD SVG 20010904//EN"
 "http://www.w3.org/TR/2001/REC-SVG-20010904/DTD/svg10.dtd">
<svg version="1.0" xmlns="http://www.w3.org/2000/svg"
 width="192.000000pt" height="192.000000pt" viewBox="0 0 192.000000 192.000000"
 preserveAspectRatio="xMidYMid meet">

<g transform="translate(0.000000,192.000000) scale(0.100000,-0.100000)"
fill="#000000" stroke="none">
<path d="M455 1138 c-52 -27 -144 -121 -177 -180 l-26 -48 48 -40 c61 -51 218
-150 239 -150 8 0 29 14 47 31 l31 30 74 -56 c135 -102 413 -223 583 -255 68
-13 70 -12 88 10 23 28 23 72 1 93 -11 9 -54 20 -103 27 -180 24 -325 56 -412
93 -21 9 -38 14 -38 12 0 -7 40 -26 109 -52 63 -23 64 -24 21 -18 -75 10 -204
70 -290 135 l-25 19 38 38 c20 22 37 44 37 49 0 31 -173 284 -194 284 -6 -1
-29 -10 -51 -22z m119 -144 c61 -80 73 -114 40 -114 -12 0 -130 131 -141 158
-6 13 14 42 28 42 5 0 38 -39 73 -86z m-50 -59 c69 -77 76 -92 50 -102 -11 -4
-39 17 -90 68 -71 70 -88 102 -61 112 21 7 33 -2 101 -78z m-55 -54 c70 -63
84 -91 46 -91 -14 0 -157 109 -170 129 -3 6 -3 16 0 21 15 24 54 6 124 -59z
m548 -257 c-3 -3 -12 -4 -19 -1 -8 3 -5 6 6 6 11 1 17 -2 13 -5z"/>
<path d="M1360 1098 c-60 -82 -130 -199 -130 -218 0 -8 14 -29 30 -47 17 -18
30 -37 30 -43 0 -12 -149 -110 -167 -110 -7 0 -13 -4 -13 -10 0 -29 98 22 176
92 21 19 22 19 55 -12 26 -23 40 -29 59 -25 25 6 188 112 245 158 29 25 30 25
14 58 -30 62 -100 140 -161 180 -34 21 -68 39 -77 39 -9 0 -36 -28 -61 -62z
m90 -50 c0 -22 -114 -161 -136 -166 -35 -8 -23 31 32 105 32 43 63 81 68 85
15 11 36 -3 36 -24z m68 -56 c5 -16 -146 -164 -162 -159 -24 8 -9 39 53 107
45 51 69 70 84 68 11 -2 22 -9 25 -16z m60 -63 c3 -18 -146 -139 -172 -139
-34 0 -12 38 57 98 72 62 108 75 115 41z"/>
<path d="M750 730 c19 -11 40 -19 45 -19 6 0 -6 8 -25 19 -19 11 -39 19 -45
19 -5 0 6 -8 25 -19z"/>
<path d="M1107 708 c-32 -16 -56 -32 -53 -35 2 -3 33 11 68 31 77 43 66 47
-15 4z"/>
<path d="M653 599 c-87 -11 -103 -21 -103 -68 0 -25 7 -44 20 -56 18 -16 26
-17 77 -6 73 14 253 71 253 80 -1 13 -126 61 -155 60 -16 -1 -58 -5 -92 -10z"/>
</g>
</svg>
