<?xml version="1.0" standalone="no"?>
<!DOCTYPE svg PUBLIC "-//W3C//DTD SVG 20010904//EN"
 "http://www.w3.org/TR/2001/REC-SVG-20010904/DTD/svg10.dtd">
<svg version="1.0" xmlns="http://www.w3.org/2000/svg"
 width="432.000000pt" height="432.000000pt" viewBox="0 0 432.000000 432.000000"
 preserveAspectRatio="xMidYMid meet">

<g transform="translate(0.000000,432.000000) scale(0.100000,-0.100000)"
fill="#000000" stroke="none">
<path d="M1370 2467 c-142 -73 -243 -169 -319 -302 -34 -59 -42 -81 -34 -94
16 -26 213 -171 319 -234 131 -79 147 -81 204 -23 24 25 52 46 62 46 10 0 18
7 18 15 0 9 25 42 55 73 30 31 55 64 55 72 0 26 -68 148 -141 255 -81 118
-156 215 -167 215 -4 0 -27 -10 -52 -23z m90 -157 c79 -100 170 -232 170 -248
0 -26 -36 -45 -57 -31 -16 10 -88 95 -180 211 -34 42 -41 76 -21 96 23 23 56
13 88 -28z m-21 -182 c117 -129 133 -162 86 -174 -21 -5 -40 9 -137 101 -62
59 -118 116 -124 128 -12 22 -8 47 10 59 32 22 57 5 165 -114z m-86 -93 c70
-64 127 -120 127 -125 0 -16 -42 -39 -59 -33 -14 6 -129 91 -157 118 -6 6 -34
28 -62 50 -53 40 -65 68 -40 93 31 31 63 13 191 -103z"/>
<path d="M2847 2423 c-101 -126 -233 -337 -242 -388 -5 -26 2 -38 50 -88 30
-31 55 -62 55 -67 0 -12 -180 -130 -252 -166 -58 -28 -66 -44 -23 -44 26 0
177 98 239 155 21 19 46 35 55 35 9 0 34 -19 56 -41 59 -61 63 -61 130 -27
114 58 375 241 399 279 13 23 -60 150 -133 230 -64 72 -232 189 -270 189 -6 0
-35 -30 -64 -67z m113 -92 c5 -11 10 -27 10 -35 0 -14 -180 -237 -214 -265
-20 -17 -56 3 -56 30 0 16 122 194 185 272 20 23 62 22 75 -2z m98 -93 c27
-27 10 -54 -105 -170 -65 -65 -125 -118 -133 -118 -20 0 -40 20 -40 40 0 8 12
29 28 45 15 17 65 72 111 123 83 92 111 108 139 80z m110 -100 c31 -31 10 -57
-152 -182 -75 -58 -106 -76 -125 -74 -20 2 -26 9 -26 28 0 20 26 49 120 133
121 108 153 125 183 95z"/>
<path d="M1630 1851 c0 -25 200 -159 375 -251 151 -80 451 -194 575 -220 25
-5 76 -16 115 -25 38 -8 77 -12 87 -9 54 17 79 137 38 181 -22 25 -33 27 -205
48 -240 30 -431 67 -519 101 -13 5 -17 4 -13 -3 7 -11 104 -45 165 -58 22 -5
31 -10 24 -17 -18 -18 -244 46 -382 109 -70 32 -94 46 -195 113 -59 39 -65 42
-65 31z m707 -267 c-3 -3 -12 -4 -19 -1 -8 3 -5 6 6 6 11 1 17 -2 13 -5z"/>
<path d="M2500 1789 c0 -5 5 -7 10 -4 6 3 10 8 10 11 0 2 -4 4 -10 4 -5 0 -10
-5 -10 -11z"/>
<path d="M1854 1765 c11 -8 29 -14 40 -14 19 2 19 2 -1 6 -13 2 -23 9 -23 14
0 5 -8 9 -17 9 -16 -1 -16 -2 1 -15z"/>
<path d="M2460 1770 c0 -5 -10 -11 -22 -11 -17 -1 -18 -3 -6 -6 10 -2 28 3 40
11 18 13 19 16 5 16 -9 0 -17 -4 -17 -10z"/>
<path d="M1928 1733 c7 -3 16 -2 19 1 4 3 -2 6 -13 5 -11 0 -14 -3 -6 -6z"/>
<path d="M2388 1733 c6 -2 18 -2 25 0 6 3 1 5 -13 5 -14 0 -19 -2 -12 -5z"/>
<path d="M1975 1713 c11 -3 22 -8 25 -12 9 -11 70 -30 70 -21 0 5 -13 11 -30
15 -16 4 -32 11 -35 16 -4 5 -16 8 -28 8 -20 -1 -21 -2 -2 -6z"/>
<path d="M2320 1710 c-26 -16 -4 -21 31 -6 31 14 32 15 9 15 -14 1 -32 -3 -40
-9z"/>
<path d="M1685 1573 c-176 -23 -219 -56 -193 -149 8 -29 24 -55 40 -67 23 -17
31 -18 74 -8 27 6 81 18 119 27 92 20 318 95 326 107 4 5 -37 31 -90 58 -107
54 -106 54 -276 32z"/>
</g>
</svg>
