<?xml version="1.0" standalone="no"?>
<!DOCTYPE svg PUBLIC "-//W3C//DTD SVG 20010904//EN"
 "http://www.w3.org/TR/2001/REC-SVG-20010904/DTD/svg10.dtd">
<svg version="1.0" xmlns="http://www.w3.org/2000/svg"
 width="128.000000pt" height="128.000000pt" viewBox="0 0 128.000000 128.000000"
 preserveAspectRatio="xMidYMid meet">

<g transform="translate(0.000000,128.000000) scale(0.100000,-0.100000)"
fill="#000000" stroke="none">
<path d="M996 826 c-63 -88 -116 -177 -116 -195 0 -8 14 -29 31 -47 l31 -32
-44 -30 c-23 -16 -63 -40 -88 -53 -31 -16 -40 -24 -28 -27 14 -3 67 29 153 92
9 7 23 1 45 -17 17 -15 35 -27 39 -27 24 0 250 156 251 173 0 4 -15 32 -34 61
-37 58 -101 118 -158 147 l-37 19 -45 -64z m78 -32 c8 -20 4 -25 -62 -102 -52
-59 -71 -70 -79 -46 -5 15 106 164 122 164 7 0 16 -7 19 -16z m56 -61 c0 -19
-118 -143 -136 -143 -30 0 -17 32 38 93 59 66 98 86 98 50z m58 -54 c3 -17
-121 -121 -146 -123 -35 -2 -17 32 45 87 64 56 95 67 101 36z"/>
<path d="M173 850 c-51 -30 -102 -84 -141 -152 l-21 -37 42 -34 c53 -43 175
-122 203 -131 14 -4 27 1 44 19 30 32 34 31 79 -4 120 -95 352 -200 525 -237
63 -13 71 -13 88 2 24 23 24 80 -1 93 -10 6 -61 15 -112 21 -127 16 -211 34
-294 64 -38 14 -71 23 -73 22 -5 -6 154 -66 175 -67 10 0 13 -3 6 -5 -15 -7
-153 31 -196 52 -101 51 -165 104 -139 116 4 2 18 15 31 30 l23 26 -31 59
c-41 77 -128 193 -143 193 -7 0 -36 -13 -65 -30z m126 -115 c48 -68 60 -105
32 -105 -13 0 -121 136 -121 153 0 16 9 27 24 27 6 0 35 -34 65 -75z m-46 -49
c58 -65 65 -80 47 -91 -15 -9 -150 114 -150 136 0 40 43 21 103 -45z m-52 -47
c38 -34 69 -66 69 -71 0 -27 -36 -15 -93 31 -76 60 -91 77 -82 91 13 21 38 9
106 -51z"/>
<path d="M400 537 c0 -7 91 -59 95 -55 2 2 -18 16 -46 31 -27 16 -49 26 -49
24z"/>
<path d="M797 497 c-42 -22 -75 -42 -73 -44 6 -6 143 64 151 77 3 5 5 9 3 8
-2 0 -38 -19 -81 -41z"/>
<path d="M393 390 c-86 -13 -103 -19 -114 -44 -9 -18 -8 -31 3 -52 12 -26 18
-29 57 -26 35 2 219 54 244 69 10 6 -104 63 -123 62 -8 -1 -39 -5 -67 -9z"/>
</g>
</svg>
